HIERARCHY
ROOT joint_Root
{
	OFFSET 0.0 0.0 0.0
	CHANNELS 6 Xposition Yposition Zposition Zrotation Xrotation Yrotation 
	JOINT Hips
	{
		OFFSET 4.5925 91.4895 -427.239
		CHANNELS 6 Xposition Yposition Zposition Zrotation Xrotation Yrotation 
		JOINT Spine
		{
			OFFSET 15.7357 0.0 0.0
			CHANNELS 6 Xposition Yposition Zposition Zrotation Xrotation Yrotation 
			JOINT Chest
			{
				OFFSET 8.98455 -0.406207 0.0
				CHANNELS 6 Xposition Yposition Zposition Zrotation Xrotation Yrotation 
				JOINT Neck
				{
					OFFSET 16.3773 0.0 0.0
					CHANNELS 6 Xposition Yposition Zposition Zrotation Xrotation Yrotation 
					JOINT Head
					{
						OFFSET 6.45672 0.0 0.0
						CHANNELS 6 Xposition Yposition Zposition Zrotation Xrotation Yrotation 
						End Site
						{
							OFFSET 0.0 0.0 0.0
						}
					}
				}
				JOINT Shoulder_L
				{
					OFFSET 12.9942 -0.242716 4.98039
					CHANNELS 6 Xposition Yposition Zposition Zrotation Xrotation Yrotation 
					JOINT UpperArm_L
					{
						OFFSET 5.34809 0.0 0.0
						CHANNELS 6 Xposition Yposition Zposition Zrotation Xrotation Yrotation 
						JOINT LowerArm_L
						{
							OFFSET 24.3286 1.87007e-05 0.0
							CHANNELS 6 Xposition Yposition Zposition Zrotation Xrotation Yrotation 
							JOINT Hand_L
							{
								OFFSET 22.2916 0.0 0.0
								CHANNELS 6 Xposition Yposition Zposition Zrotation Xrotation Yrotation 
								End Site
								{
									OFFSET 0.0 0.0 0.0
								}
							}
						}
					}
				}
				JOINT Shoulder_R
				{
					OFFSET 12.9945 -0.242716 -4.98039
					CHANNELS 6 Xposition Yposition Zposition Zrotation Xrotation Yrotation 
					JOINT UpperArm_R
					{
						OFFSET -5.34813 0.0 0.0
						CHANNELS 6 Xposition Yposition Zposition Zrotation Xrotation Yrotation 
						JOINT LowerArm_R
						{
							OFFSET -24.3289 0.000322201 0.0
							CHANNELS 6 Xposition Yposition Zposition Zrotation Xrotation Yrotation 
							JOINT Hand_R
							{
								OFFSET -22.2915 -0.000108084 0.0
								CHANNELS 6 Xposition Yposition Zposition Zrotation Xrotation Yrotation 
								End Site
								{
									OFFSET 0.0 0.0 0.0
								}
							}
						}
					}
				}
			}
		}
		JOINT UpperLeg_L
		{
			OFFSET -2.19248 -6.46944 0.0
			CHANNELS 6 Xposition Yposition Zposition Zrotation Xrotation Yrotation 
			JOINT LowerLeg_L
			{
				OFFSET 39.0811 0.0 -1.23785e-05
				CHANNELS 6 Xposition Yposition Zposition Zrotation Xrotation Yrotation 
				JOINT Foot_L
				{
					OFFSET 40.9854 0.0 -1.26872e-05
					CHANNELS 6 Xposition Yposition Zposition Zrotation Xrotation Yrotation 
					JOINT Toes_L
					{
						OFFSET 11.7543 0.0 0.0
						CHANNELS 6 Xposition Yposition Zposition Zrotation Xrotation Yrotation 
						End Site
						{
							OFFSET 0.0 0.0 0.0
						}
					}
				}
			}
		}
		JOINT UpperLeg_R
		{
			OFFSET -2.19251 6.46944 0.0
			CHANNELS 6 Xposition Yposition Zposition Zrotation Xrotation Yrotation 
			JOINT LowerLeg_R
			{
				OFFSET -39.0811 -0.00228153 -0.0401928
				CHANNELS 6 Xposition Yposition Zposition Zrotation Xrotation Yrotation 
				JOINT Foot_R
				{
					OFFSET -40.9854 0.0 0.0
					CHANNELS 6 Xposition Yposition Zposition Zrotation Xrotation Yrotation 
					JOINT Toes_R
					{
						OFFSET -11.7543 0.0 0.0
						CHANNELS 6 Xposition Yposition Zposition Zrotation Xrotation Yrotation 
						End Site
						{
							OFFSET 0.0 0.0 0.0
						}
					}
				}
			}
		}
	}
}
MOTION
Frames:	7
Frame Time:	0.0333333
0.000000 0.000000 0.000000 0.000000 0.000000 -0.000000 -116.812000 89.226700 191.643000 112.634000 89.446900 -19.388800 15.735700 0.000005 -0.000001 98.209300 83.953100 -97.014300 8.984550 -0.406207 -0.000000 4.188940 1.686890 2.325580 16.377300 -0.000001 -0.000001 -3.314100 -0.458065 4.509520 6.456720 -0.000001 -0.000000 -13.361800 -0.834148 6.945650 12.994200 -0.242716 4.980390 -90.771900 2.370260 -71.956300 5.348090 -0.000007 -0.000001 -74.207400 36.630600 -6.778200 24.328600 0.000019 0.000005 8.824990 24.449400 -20.571500 22.291600 -0.000001 0.000005 7.267070 5.302330 0.008992 12.994500 -0.242716 -4.980390 88.122600 10.633700 -79.927300 -5.348130 -0.000001 -0.000004 -60.198100 20.915000 -8.253030 -24.328900 0.000322 -0.000009 1.898990 10.351600 -10.467700 -22.291500 -0.000108 -0.000004 16.335100 5.299660 0.088906 -2.192480 -6.469440 -0.000000 -174.060000 -4.174370 -8.028440 39.081100 -0.000007 -0.000012 0.008914 -0.004372 63.846700 40.985400 -0.000006 -0.000013 2.642290 -5.799800 -55.848000 11.754300 -0.000000 0.000003 -0.007565 -0.084451 -20.015300 -2.192510 6.469440 -0.000001 179.277000 25.967100 176.350000 -39.081100 -0.002282 -0.040193 0.077285 -0.084196 41.316200 -40.985400 0.000008 0.000006 7.235260 0.275885 -72.275000 -11.754300 -0.000006 -0.000006 -0.019156 -0.162571 -23.213600
0.000000 0.000000 0.000000 0.000000 0.000000 -0.000000 -114.903000 90.202700 191.659000 101.296000 87.696100 -8.546440 15.735700 0.000005 -0.000001 105.215000 83.834000 -104.107000 8.984550 -0.406207 -0.000000 4.108990 3.196060 2.097930 16.377300 -0.000001 -0.000001 -3.315230 0.395250 4.872640 6.456720 -0.000001 -0.000000 -13.322200 0.058326 7.244390 12.994200 -0.242716 4.980390 -90.669300 2.022710 -71.687300 5.348090 -0.000007 -0.000001 -76.524000 35.839100 -2.461450 24.328600 0.000019 0.000005 9.768270 31.913100 -18.043200 22.291600 -0.000001 0.000005 3.021340 5.300480 0.047288 12.994500 -0.242716 -4.980390 88.325600 10.164700 -80.595600 -5.348130 -0.000001 -0.000004 -58.384100 19.146500 -11.848100 -24.328900 0.000322 -0.000009 1.645360 6.615220 -14.027500 -22.291500 -0.000108 -0.000004 17.872400 5.341950 -1.130810 -2.192480 -6.469440 -0.000000 -176.236000 -4.634360 -12.029000 39.081100 -0.000007 -0.000012 -0.006229 0.003204 62.822200 40.985400 -0.000006 -0.000013 3.092200 -6.233960 -58.303000 11.754300 -0.000000 0.000003 -0.007249 -0.081794 -19.906800 -2.192510 6.469440 -0.000001 178.081000 25.817700 178.065000 -39.081100 -0.002282 -0.040193 0.070873 -0.083313 39.052300 -40.985400 0.000008 0.000006 7.155660 2.708500 -69.148300 -11.754300 -0.000006 -0.000006 -0.031577 -0.224600 -25.778300
0.000000 0.000000 0.000000 0.000000 0.000000 -0.000000 -113.159000 91.021600 191.628000 98.427600 86.203700 -6.585640 15.735700 0.000005 -0.000001 109.876000 83.778200 -108.800000 8.984550 -0.406207 -0.000000 3.906530 4.188450 2.008110 16.377300 -0.000001 -0.000001 -3.501400 1.178470 4.980870 6.456720 -0.000001 -0.000000 -13.223400 0.797821 7.178250 12.994200 -0.242716 4.980390 -90.557600 1.644120 -71.263100 5.348090 -0.000007 -0.000001 -78.102300 33.418700 1.508970 24.328600 0.000019 0.000005 9.167040 35.436400 -15.553200 22.291600 -0.000001 0.000005 0.626245 5.278520 0.675495 12.994500 -0.242716 -4.980390 88.589000 9.259630 -81.297200 -5.348130 -0.000001 -0.000004 -56.979300 18.018700 -15.539200 -24.328900 0.000322 -0.000009 0.988517 2.988810 -18.373900 -22.291500 -0.000108 -0.000004 18.758600 5.371770 -2.039080 -2.192480 -6.469440 -0.000000 -178.160000 -4.911760 -16.238700 39.081100 -0.000007 -0.000012 -0.015548 0.009199 59.403200 40.985400 -0.000006 -0.000013 2.552300 -5.999070 -60.331700 11.754300 -0.000000 0.000003 -0.006954 -0.079278 -19.804100 -2.192510 6.469440 -0.000001 177.180000 26.054700 179.023000 -39.081100 -0.002282 -0.040193 0.068364 -0.086017 37.110200 -40.985400 0.000008 0.000006 7.091540 5.127200 -66.237700 -11.754300 -0.000006 -0.000006 -0.046240 -0.284088 -28.262300
0.000000 0.000000 0.000000 0.000000 0.000000 -0.000000 -111.342000 91.556800 191.538000 97.094200 84.403400 -5.993380 15.735700 0.000005 -0.000001 113.808000 83.617900 -112.818000 8.984550 -0.406207 -0.000000 3.881420 5.111690 1.805450 16.377300 -0.000001 -0.000001 -3.724790 1.767520 4.926530 6.456720 -0.000001 -0.000000 -13.184000 1.284190 6.947940 12.994200 -0.242716 4.980390 -90.421600 1.208140 -70.759400 5.348090 -0.000007 -0.000001 -78.647400 29.857900 4.923710 24.328600 0.000019 0.000005 7.290490 34.483900 -12.731700 22.291600 -0.000001 0.000005 1.292390 5.231910 1.900780 12.994500 -0.242716 -4.980390 88.820900 8.298770 -81.884900 -5.348130 -0.000001 -0.000004 -55.621400 17.636500 -19.210900 -24.328900 0.000322 -0.000009 0.196157 0.463341 -23.197400 -22.291500 -0.000108 -0.000004 19.310200 5.396260 -2.815040 -2.192480 -6.469440 -0.000000 -179.915000 -5.861070 -19.460700 39.081100 -0.000007 -0.000012 -0.014321 0.010633 53.418400 40.985400 -0.000006 -0.000013 1.833540 -5.404510 -61.880100 11.754300 -0.000000 0.000003 -0.006297 -0.073519 -19.569100 -2.192510 6.469440 -0.000001 176.245000 25.817300 179.878000 -39.081100 -0.002282 -0.040193 0.069923 -0.092683 35.714000 -40.985400 0.000008 0.000006 7.184460 7.053230 -63.910000 -11.754300 -0.000006 -0.000006 -0.062823 -0.340843 -30.659500
0.000000 0.000000 0.000000 0.000000 0.000000 -0.000000 -109.422000 91.774200 191.494000 94.909000 82.605000 -4.463650 15.735700 0.000005 -0.000001 116.604000 83.413000 -115.681000 8.984550 -0.406207 -0.000000 3.983930 5.860480 1.639890 16.377300 -0.000001 -0.000001 -3.942510 2.150500 4.766490 6.456720 -0.000001 -0.000000 -13.313900 1.414180 6.646550 12.994200 -0.242716 4.980390 -90.315100 0.877989 -70.259600 5.348090 -0.000007 -0.000001 -78.066500 25.429100 7.608780 24.328600 0.000019 0.000005 5.601480 31.820500 -10.536500 22.291600 -0.000001 0.000005 3.455510 5.205540 2.572130 12.994500 -0.242716 -4.980390 88.986200 7.519990 -82.299600 -5.348130 -0.000001 -0.000004 -54.168500 17.507700 -23.091100 -24.328900 0.000322 -0.000009 -0.194772 -0.366017 -27.842800 -22.291500 -0.000108 -0.000004 19.654300 5.416650 -3.485680 -2.192480 -6.469440 -0.000000 178.704000 -7.453430 -21.756300 39.081100 -0.000007 -0.000012 -0.009081 0.009027 45.178000 40.985400 -0.000006 -0.000013 1.251680 -4.313100 -62.379400 11.754300 -0.000000 0.000003 -0.006595 -0.076158 -19.676800 -2.192510 6.469440 -0.000001 175.561000 25.154000 -179.366000 -39.081100 -0.002282 -0.040193 0.072798 -0.099734 34.873600 -40.985400 0.000008 0.000006 7.234860 8.511820 -62.355200 -11.754300 -0.000006 -0.000006 -0.079912 -0.391698 -32.834700
0.000000 0.000000 0.000000 0.000000 0.000000 -0.000000 -107.327000 91.642700 191.522000 92.262800 81.104500 -2.566360 15.735700 0.000005 -0.000001 118.246000 83.334900 -117.366000 8.984550 -0.406207 -0.000000 3.948920 6.270260 1.543820 16.377300 -0.000001 -0.000001 -4.203930 2.263890 4.546770 6.456720 -0.000001 -0.000000 -13.221000 1.303950 6.429170 12.994200 -0.242716 4.980390 -90.228300 0.622751 -69.869000 5.348090 -0.000007 -0.000001 -76.721300 21.315400 9.712350 24.328600 0.000019 0.000005 4.597380 30.311000 -9.052380 22.291600 -0.000001 0.000005 5.918070 5.177450 3.273550 12.994500 -0.242716 -4.980390 89.086800 7.014610 -82.563600 -5.348130 -0.000001 -0.000004 -52.403900 17.984800 -26.786900 -24.328900 0.000322 -0.000009 -0.359966 -0.564651 -32.431900 -22.291500 -0.000108 -0.000004 20.123700 5.430950 -3.970830 -2.192480 -6.469440 -0.000000 177.536000 -8.969130 -23.534500 39.081100 -0.000007 -0.000012 -0.006473 0.009048 35.583800 40.985400 -0.000006 -0.000013 0.868288 -2.590670 -61.454700 11.754300 -0.000000 0.000003 -0.006008 -0.070919 -19.463100 -2.192510 6.469440 -0.000001 175.052000 24.609300 -178.773000 -39.081100 -0.002282 -0.040193 0.077283 -0.107055 34.650300 -40.985400 0.000008 0.000006 7.269630 9.881150 -61.562400 -11.754300 -0.000006 -0.000006 -0.098332 -0.440400 -34.945700
0.000000 0.000000 0.000000 0.000000 0.000000 -0.000000 -104.875000 91.187200 191.689000 89.172400 79.883500 0.107555 15.735700 0.000005 -0.000001 118.943000 83.269400 -118.066000 8.984550 -0.406207 -0.000000 3.986100 6.476010 1.527000 16.377300 -0.000001 -0.000001 -4.369370 2.190110 4.354570 6.456720 -0.000001 -0.000000 -13.051500 0.985232 6.308690 12.994200 -0.242716 4.980390 -90.117500 0.317871 -69.707800 5.348090 -0.000007 -0.000001 -75.188500 18.313100 11.165000 24.328600 0.000019 0.000005 3.915470 30.218200 -7.744410 22.291600 -0.000001 0.000005 7.678410 5.136760 4.252450 12.994500 -0.242716 -4.980390 89.156900 6.630510 -82.736800 -5.348130 -0.000001 -0.000004 -51.043000 18.467100 -29.811900 -24.328900 0.000322 -0.000009 -0.238494 -0.318325 -36.738100 -22.291500 -0.000108 -0.000004 20.821100 5.441310 -4.330160 -2.192480 -6.469440 -0.000000 176.886000 -9.593330 -24.647100 39.081100 -0.000007 -0.000012 -0.008403 0.016718 26.686500 40.985400 -0.000006 -0.000013 0.003694 0.596800 -60.433600 11.754300 -0.000000 0.000003 -0.005476 -0.066008 -19.262800 -2.192510 6.469440 -0.000001 174.606000 23.893900 -177.769000 -39.081100 -0.002282 -0.040193 0.082175 -0.112633 35.006200 -40.985400 0.000008 0.000006 7.135850 10.779700 -61.316700 -11.754300 -0.000006 -0.000006 -0.118904 -0.489225 -37.093800
